<svg width="29" height="29" viewBox="0 0 29 29" fill="none" xmlns="http://www.w3.org/2000/svg">
<path d="M14.5 0.625C6.86875 0.625 0.625 6.86875 0.625 14.5C0.625 22.1313 6.86875 28.375 14.5 28.375C22.1313 28.375 28.375 22.1313 28.375 14.5C28.375 6.86875 22.1313 0.625 14.5 0.625ZM14.5 3.70833C16.8896 3.70833 19.125 4.55625 20.975 5.86667L5.86667 20.975C4.55625 19.125 3.70833 16.8896 3.70833 14.5C3.70833 8.56458 8.56458 3.70833 14.5 3.70833ZM14.5 25.2917C12.1104 25.2917 9.875 24.4438 8.025 23.1333L23.1333 8.025C24.4438 9.875 25.2917 12.1104 25.2917 14.5C25.2917 20.4354 20.4354 25.2917 14.5 25.2917Z" fill="#D50000"/>
</svg>
