<svg width="16" height="14" viewBox="0 0 16 14" fill="none" xmlns="http://www.w3.org/2000/svg">
<path d="M1.37622 6.18835H15.1262C15.3086 6.18835 15.4834 6.26079 15.6124 6.38972C15.7413 6.51865 15.8137 6.69352 15.8137 6.87585C15.8137 7.05819 15.7413 7.23306 15.6124 7.36199C15.4834 7.49092 15.3086 7.56335 15.1262 7.56335H1.37622C1.19388 7.56335 1.01902 7.49092 0.890085 7.36199C0.761154 7.23306 0.688721 7.05819 0.688721 6.87585C0.688721 6.69352 0.761154 6.51865 0.890085 6.38972C1.01902 6.26079 1.19388 6.18835 1.37622 6.18835Z" fill="#37B6FF"/>
<path d="M1.66085 6.87587L7.36298 12.5766C7.49207 12.7057 7.5646 12.8808 7.5646 13.0634C7.5646 13.2459 7.49207 13.421 7.36298 13.5501C7.23388 13.6792 7.0588 13.7517 6.87623 13.7517C6.69366 13.7517 6.51857 13.6792 6.38948 13.5501L0.201979 7.36262C0.137954 7.29876 0.0871582 7.22289 0.0524993 7.13936C0.0178404 7.05584 0 6.9663 0 6.87587C0 6.78544 0.0178404 6.6959 0.0524993 6.61237C0.0871582 6.52885 0.137954 6.45298 0.201979 6.38912L6.38948 0.201618C6.51857 0.0725242 6.69366 0 6.87623 0C7.0588 0 7.23388 0.0725242 7.36298 0.201618C7.49207 0.330712 7.5646 0.505802 7.5646 0.688368C7.5646 0.870935 7.49207 1.04602 7.36298 1.17512L1.66085 6.87587Z" fill="#37B6FF"/>
</svg>
