<svg width="34" height="28" viewBox="0 0 34 28" fill="none" xmlns="http://www.w3.org/2000/svg">
<path d="M25.7174 1.47964H0.677246V26.5198H25.7174V1.47964Z" fill="#FFE6B8"/>
<path d="M32.9572 2.94917L32.201 2.19293C31.7138 1.70571 30.9238 1.70571 30.4366 2.19293L28.0923 4.53721L30.613 7.05793L32.9573 4.71365C33.4446 4.22636 33.4446 3.43639 32.9572 2.94917Z" fill="#D35B38"/>
<path d="M28.0924 4.5372L13.1193 19.5104L11.8589 23.2915L15.64 22.0311L30.6132 7.05792L28.0924 4.5372Z" fill="#FFAD61"/>
<path d="M26.3947 5.27683V1.47998C26.3947 1.10598 26.0915 0.802704 25.7175 0.802704H0.677279C0.303212 0.802637 0 1.10598 0 1.47998V26.5201C0 26.8941 0.303212 27.1974 0.677279 27.1974H25.7175C26.0915 27.1974 26.3947 26.8941 26.3947 26.5201L26.3945 12.2344L33.4362 5.19256C33.7998 4.82899 34 4.34555 34 3.83137C34 3.31718 33.7998 2.83381 33.4362 2.4703L32.6801 1.71406C32.3165 1.35049 31.8331 1.15027 31.3189 1.15027C30.8047 1.15027 30.3214 1.35049 29.9577 1.71406L26.3947 5.27683ZM15.274 21.4391L12.9296 22.2206L13.7111 19.8761L28.0922 5.49498L29.6552 7.05792L15.274 21.4391ZM25.0402 25.8428H1.35456V2.15733H25.0401V6.63152L12.6403 19.0314C12.5659 19.1058 12.5099 19.1965 12.4766 19.2961L11.2162 23.0773C11.1351 23.3206 11.1984 23.5889 11.3799 23.7703C11.509 23.8994 11.6821 23.9687 11.8589 23.9687C11.9306 23.9687 12.0028 23.9573 12.073 23.934L15.8541 22.6736C15.9539 22.6404 16.0445 22.5844 16.1189 22.51L25.0402 13.5887V25.8428ZM32.4784 4.23465L30.613 6.10007L29.8315 5.3186L29.0501 4.53713L30.9156 2.67171C31.0233 2.56393 31.1665 2.50463 31.3189 2.50463C31.4713 2.50463 31.6145 2.56393 31.7223 2.67164L32.4784 3.42788L32.4785 3.42795C32.5862 3.53572 32.6455 3.6789 32.6455 3.83123C32.6455 3.9837 32.5861 4.12694 32.4784 4.23465Z" fill="#4D3D36"/>
<path d="M20.48 6.39042H21.1257C21.4997 6.39042 21.803 6.08714 21.803 5.71314C21.803 5.33914 21.4997 5.03586 21.1257 5.03586H20.48C20.106 5.03586 19.8027 5.33914 19.8027 5.71314C19.8027 6.08714 20.1059 6.39042 20.48 6.39042Z" fill="#4D3D36"/>
<path d="M5.1973 6.39042H17.5381C17.9121 6.39042 18.2153 6.08714 18.2153 5.71314C18.2153 5.33914 17.9121 5.03586 17.5381 5.03586H5.1973C4.82323 5.03586 4.52002 5.33914 4.52002 5.71314C4.52002 6.08714 4.82323 6.39042 5.1973 6.39042Z" fill="#4D3D36"/>
<path d="M5.1973 10.3366H16.8923C17.2663 10.3366 17.5696 10.0333 17.5696 9.65933C17.5696 9.28533 17.2663 8.98206 16.8923 8.98206H5.1973C4.82323 8.98206 4.52002 9.28533 4.52002 9.65933C4.51995 10.0333 4.82323 10.3366 5.1973 10.3366Z" fill="#4D3D36"/>
<path d="M5.1973 14.2827H12.6592C13.0333 14.2827 13.3365 13.9794 13.3365 13.6054C13.3365 13.2314 13.0333 12.9282 12.6592 12.9282H5.1973C4.82323 12.9282 4.52002 13.2314 4.52002 13.6054C4.52002 13.9794 4.82323 14.2827 5.1973 14.2827Z" fill="#4D3D36"/>
<path d="M9.43051 16.8025H5.1973C4.82323 16.8025 4.52002 17.1058 4.52002 17.4798C4.52002 17.8538 4.82323 18.1571 5.1973 18.1571H9.43044C9.80451 18.1571 10.1077 17.8538 10.1077 17.4798C10.1077 17.1058 9.80457 16.8025 9.43051 16.8025Z" fill="#4D3D36"/>
</svg>
