<svg width="27" height="26" viewBox="0 0 27 26" fill="none" xmlns="http://www.w3.org/2000/svg">
<path d="M12.9684 25.9369C5.81791 25.9369 0 20.1193 0 12.9684C0 5.81759 5.81794 0 12.9684 0C16.1683 0 19.2423 1.17568 21.6239 3.31035C21.9201 3.57595 21.9447 4.03152 21.6788 4.32774C21.4135 4.62467 20.9583 4.64857 20.6614 4.38332C18.545 2.48577 15.813 1.44093 12.9684 1.44093C6.61228 1.44093 1.44093 6.61225 1.44093 12.9684C1.44093 19.3246 6.61225 24.4959 12.9684 24.4959C19.1923 24.4959 24.2525 19.6278 24.4875 13.4135C24.503 13.0159 24.8323 12.699 25.2347 12.7204C25.6322 12.7356 25.9425 13.0701 25.927 13.4676C25.6625 20.4598 19.9705 25.9369 12.9684 25.9369Z" fill="#22C67F"/>
<path d="M27.0085 7.28721L24.9707 5.24942L14.0033 16.2168L6.36057 8.5741L4.32275 10.6119L14.0023 20.2914L14.0033 20.2904L14.0043 20.2914L27.0085 7.28721Z" fill="#74E8AE"/>
</svg>
