<svg width="21" height="22" viewBox="0 0 21 22" fill="none" xmlns="http://www.w3.org/2000/svg">
<path fill-rule="evenodd" clip-rule="evenodd" d="M10.5 10.0125C12.6679 10.0125 14.4375 8.24179 14.4375 6.03752C14.4375 3.83325 12.6679 2.0625 10.5 2.0625C8.33212 2.0625 6.5625 3.83325 6.5625 6.03752C6.5625 8.24179 8.33212 10.0125 10.5 10.0125ZM15.5625 6.03752C15.5625 8.85525 13.297 11.1375 10.5 11.1375C7.70297 11.1375 5.4375 8.85525 5.4375 6.03752C5.4375 3.21973 7.70297 0.9375 10.5 0.9375C13.297 0.9375 15.5625 3.21973 15.5625 6.03752Z" fill="#333333"/>
<path fill-rule="evenodd" clip-rule="evenodd" d="M7.19554 13.2866C7.06712 13.0234 6.77704 12.8812 6.49421 12.9507C3.45441 13.6977 0.375 15.2209 0.375 17.5123V21.1873H20.625V17.5123C20.625 15.2209 17.5456 13.6977 14.5058 12.9507C14.223 12.8812 13.9329 13.0234 13.8045 13.2866L11.5184 14.9741C11.0185 14.9742 10.764 14.9742 10.5139 14.9741C10.2546 14.9741 10.0001 14.9741 9.48148 14.9742L7.19554 13.2866ZM14.5615 14.126L11.8888 16.099L11.5186 16.0991C11.0154 16.0992 10.7622 16.0992 10.5135 16.0991C10.2558 16.0991 10.0029 16.0991 9.48176 16.0992L9.1113 16.0993L6.43847 14.126C5.10433 14.4797 3.84219 14.9776 2.91536 15.5907C1.8896 16.2692 1.5 16.9267 1.5 17.5123V20.0623H19.5V17.5123C19.5 16.9267 19.1104 16.2692 18.0846 15.5907C17.1578 14.9776 15.8957 14.4797 14.5615 14.126Z" fill="#333333"/>
<path fill-rule="evenodd" clip-rule="evenodd" d="M15.5625 15H14.4375V16.6875H12.75V17.8125H14.4375V19.5H15.5625V17.8125H17.25V16.6875H15.5625V15Z" fill="#333333"/>
</svg>
