<svg width="24" height="22" viewBox="0 0 24 22" fill="none" xmlns="http://www.w3.org/2000/svg">
<path d="M19.9851 19.9042H4.04761C2.23833 19.9042 0.766357 18.4323 0.766357 16.6229V7.24792C0.766357 5.43864 2.23833 3.96667 4.04761 3.96667H19.9851C21.7944 3.96667 23.2664 5.43864 23.2664 7.24792V16.6229C23.2664 18.4323 21.7944 19.9042 19.9851 19.9042ZM4.04756 4.90422C2.75522 4.90422 1.70381 5.95563 1.70381 7.24797V16.623C1.70381 17.9153 2.75522 18.9667 4.04756 18.9667H19.9851C21.2774 18.9667 22.3288 17.9153 22.3288 16.623V7.24797C22.3288 5.95563 21.2774 4.90422 19.9851 4.90422H4.04756Z" fill="black"/>
<path d="M7.32886 21.7792H4.51636C3.99942 21.7792 3.57886 21.3586 3.57886 20.8417V19.4354C3.57886 19.1766 3.78872 18.9667 4.04761 18.9667H7.79761C8.0565 18.9667 8.26636 19.1766 8.26636 19.4354V20.8417C8.26636 21.3586 7.84579 21.7792 7.32886 21.7792ZM4.51636 19.9042V20.8417H7.32886C7.32928 20.8417 7.32947 20.8416 7.32947 20.8416L7.32909 19.9042H4.51636Z" fill="black"/>
<path d="M19.9851 21.7792H17.1726C16.6557 21.7792 16.2351 21.3586 16.2351 20.8417V19.4354C16.2351 19.1766 16.445 18.9667 16.7039 18.9667H20.4539C20.7127 18.9667 20.9226 19.1766 20.9226 19.4354V20.8417C20.9226 21.3586 20.502 21.7792 19.9851 21.7792ZM17.1726 19.9042V20.8417H19.9851C19.9855 20.8417 19.9857 20.8416 19.9857 20.8416L19.9853 19.9042H17.1726Z" fill="black"/>
<path d="M17.6414 4.90424H6.39136C6.13247 4.90424 5.92261 4.69438 5.92261 4.43549V3.49799C5.92261 1.6887 7.39458 0.216736 9.20386 0.216736H14.8289C16.6381 0.216736 18.1101 1.6887 18.1101 3.49799V4.43549C18.1101 4.69433 17.9002 4.90424 17.6414 4.90424ZM6.86006 3.96674H17.1726V3.49799C17.1726 2.20564 16.1212 1.15424 14.8288 1.15424H9.20381C7.91147 1.15424 6.86006 2.20564 6.86006 3.49799V3.96674Z" fill="black"/>
<path d="M13.8914 18.0292H10.1414C9.88247 18.0292 9.67261 17.8193 9.67261 17.5604V14.2792H6.39136C6.13247 14.2792 5.92261 14.0693 5.92261 13.8104V10.0604C5.92261 9.80153 6.13247 9.59167 6.39136 9.59167H9.67261V6.31042C9.67261 6.05153 9.88247 5.84167 10.1414 5.84167H13.8914C14.1502 5.84167 14.3601 6.05153 14.3601 6.31042V9.59167H17.6414C17.9002 9.59167 18.1101 9.80153 18.1101 10.0604V13.8104C18.1101 14.0693 17.9002 14.2792 17.6414 14.2792H14.3601V17.5604C14.3601 17.8193 14.1502 18.0292 13.8914 18.0292ZM10.6101 17.0917H13.4226V13.8104C13.4226 13.5516 13.6325 13.3417 13.8913 13.3417H17.1726V10.5292H13.8913C13.6325 10.5292 13.4226 10.3193 13.4226 10.0604V6.77917H10.6101V10.0604C10.6101 10.3193 10.4002 10.5292 10.1413 10.5292H6.86006V13.3417H10.1413C10.4002 13.3417 10.6101 13.5516 10.6101 13.8104V17.0917Z" fill="black"/>
<path d="M12.0164 16.1542C11.7575 16.1542 11.5476 15.9443 11.5476 15.6854V8.18542C11.5476 7.92653 11.7575 7.71667 12.0164 7.71667C12.2752 7.71667 12.4851 7.92653 12.4851 8.18542V15.6854C12.4852 15.9443 12.2752 16.1542 12.0164 16.1542Z" fill="black"/>
<path d="M15.7664 12.4042H8.26636C8.00747 12.4042 7.79761 12.1943 7.79761 11.9354C7.79761 11.6766 8.00747 11.4667 8.26636 11.4667H15.7664C16.0252 11.4667 16.2351 11.6766 16.2351 11.9354C16.2351 12.1943 16.0252 12.4042 15.7664 12.4042Z" fill="black"/>
</svg>
