<svg width="18" height="24" viewBox="0 0 18 24" fill="none" xmlns="http://www.w3.org/2000/svg">
<path d="M16.5277 4.05898H14.926V1.79687C14.926 1.20079 14.4408 0.715594 13.845 0.715594H10.3912V0.480513C10.3912 0.215122 10.1761 0 9.91069 0H5.40619C5.1408 0 4.92568 0.215122 4.92568 0.480513V0.715594H1.4719C0.875817 0.715594 0.390869 1.20054 0.390869 1.79687V19.5753C0.390869 20.1714 0.875817 20.6564 1.4719 20.6564H3.07385V22.9187C3.07385 23.5151 3.5588 24 4.15488 24H16.5277C17.124 24 17.609 23.5151 17.609 22.9187V5.14025C17.609 4.54417 17.124 4.05898 16.5277 4.05898ZM3.07385 5.14025V19.4553H1.59215V1.91712H4.92543V2.06078C4.92543 2.32617 5.14055 2.5413 5.40594 2.5413H9.91044C10.1758 2.5413 10.391 2.32617 10.391 2.06078V1.91712H13.7242V4.05922H13.0734V3.82389C13.0734 3.5585 12.8583 3.34338 12.5932 3.34338H8.08868C7.82329 3.34338 7.60817 3.5585 7.60817 3.82389V4.05898H4.15488C3.5588 4.05898 3.07385 4.54417 3.07385 5.14025ZM16.4077 22.7987H4.27489V5.26026H7.60841V5.40392C7.60841 5.66931 7.82354 5.88443 8.08893 5.88443H12.5932C12.8588 5.88443 13.0739 5.66906 13.0739 5.40392V5.26026H16.407V22.7985H16.4077V22.7987Z" fill="black"/>
<path d="M14.5054 14.7128H6.177V16.3946H14.5054V14.7128Z" fill="black"/>
<path d="M14.5054 18.1565H6.177V19.8385H14.5054V18.1565Z" fill="black"/>
<path d="M9.60063 12.9112H11.0818V11.0289H12.9642V9.54741H11.0818V7.66553H9.60063V9.54741H7.71875V11.0289H9.60063V12.9112Z" fill="black"/>
</svg>
