<svg width="13" height="23" viewBox="0 0 13 23" fill="none" xmlns="http://www.w3.org/2000/svg">
<path d="M6.51562 22.5039C4.28633 22.5039 2.47266 20.6902 2.47266 18.4609V3.1875C2.47266 2.9394 2.67377 2.73828 2.92188 2.73828H10.1094C10.3574 2.73828 10.5586 2.9394 10.5586 3.1875V18.4609C10.5586 20.6902 8.74496 22.5039 6.51562 22.5039ZM3.37109 3.63676V18.461C3.37109 20.1949 4.78173 21.6055 6.51562 21.6055C8.24952 21.6055 9.66016 20.1949 9.66016 18.461V3.63676H3.37109Z" fill="black"/>
<path d="M12.3555 3.63675H0.675781C0.427678 3.63675 0.226562 3.43563 0.226562 3.18753V0.941437C0.226562 0.693333 0.427678 0.492218 0.675781 0.492218H12.3555C12.6035 0.492218 12.8047 0.693333 12.8047 0.941437V3.18753C12.8047 3.43559 12.6035 3.63675 12.3555 3.63675ZM1.12496 2.73831H11.9062V1.39066H1.12496V2.73831Z" fill="black"/>
<path d="M4.71875 5.43362H2.92188C2.67377 5.43362 2.47266 5.23251 2.47266 4.98441C2.47266 4.7363 2.67377 4.53519 2.92188 4.53519H4.71875C4.96685 4.53519 5.16797 4.7363 5.16797 4.98441C5.16797 5.23251 4.96685 5.43362 4.71875 5.43362Z" fill="black"/>
<path d="M3.82031 7.2305H2.92188C2.67377 7.2305 2.47266 7.02938 2.47266 6.78128C2.47266 6.53318 2.67377 6.33206 2.92188 6.33206H3.82031C4.06842 6.33206 4.26953 6.53318 4.26953 6.78128C4.26953 7.02938 4.06842 7.2305 3.82031 7.2305Z" fill="black"/>
<path d="M4.71875 9.02737H2.92188C2.67377 9.02737 2.47266 8.82626 2.47266 8.57816C2.47266 8.33005 2.67377 8.12894 2.92188 8.12894H4.71875C4.96685 8.12894 5.16797 8.33005 5.16797 8.57816C5.16797 8.82626 4.96685 9.02737 4.71875 9.02737Z" fill="black"/>
<path d="M3.82031 10.8242H2.92188C2.67377 10.8242 2.47266 10.6231 2.47266 10.375C2.47266 10.1269 2.67377 9.92581 2.92188 9.92581H3.82031C4.06842 9.92581 4.26953 10.1269 4.26953 10.375C4.26953 10.6231 4.06842 10.8242 3.82031 10.8242Z" fill="black"/>
<path d="M4.71875 12.6211H2.92188C2.67377 12.6211 2.47266 12.4199 2.47266 12.1719C2.47266 11.9238 2.67377 11.7227 2.92188 11.7227H4.71875C4.96685 11.7227 5.16797 11.9238 5.16797 12.1719C5.16797 12.4199 4.96685 12.6211 4.71875 12.6211Z" fill="black"/>
<path d="M3.82031 14.418H2.92188C2.67377 14.418 2.47266 14.2168 2.47266 13.9688C2.47266 13.7207 2.67377 13.5195 2.92188 13.5195H3.82031C4.06842 13.5195 4.26953 13.7207 4.26953 13.9688C4.26953 14.2168 4.06842 14.418 3.82031 14.418Z" fill="black"/>
<path d="M4.71875 16.2148H2.92188C2.67377 16.2148 2.47266 16.0137 2.47266 15.7656C2.47266 15.5176 2.67377 15.3164 2.92188 15.3164H4.71875C4.96685 15.3164 5.16797 15.5176 5.16797 15.7656C5.16797 16.0137 4.96685 16.2148 4.71875 16.2148Z" fill="black"/>
<path d="M3.82031 18.0117H2.92188C2.67377 18.0117 2.47266 17.8106 2.47266 17.5625C2.47266 17.3144 2.67377 17.1133 2.92188 17.1133H3.82031C4.06842 17.1133 4.26953 17.3144 4.26953 17.5625C4.26953 17.8106 4.06842 18.0117 3.82031 18.0117Z" fill="black"/>
<path d="M4.71875 19.8086H3.37109C3.12299 19.8086 2.92188 19.6074 2.92188 19.3594C2.92188 19.1113 3.12299 18.9102 3.37109 18.9102H4.71875C4.96685 18.9102 5.16797 19.1113 5.16797 19.3594C5.16797 19.6074 4.96685 19.8086 4.71875 19.8086Z" fill="black"/>
</svg>
