<svg width="17" height="17" viewBox="0 0 17 17" fill="none" xmlns="http://www.w3.org/2000/svg">
<path d="M7.70818 16.417C9.89429 16.417 11.6665 14.6448 11.6665 12.4587C11.6665 12.0214 11.3121 11.667 10.8748 11.667C10.4376 11.667 10.0832 12.0214 10.0832 12.4587C10.0832 13.7703 9.01981 14.8337 7.70818 14.8337L4.54151 14.8337C3.2298 14.8337 2.16651 13.7703 2.16651 12.4587L2.16651 4.54199C2.16651 3.23028 3.2298 2.16699 4.54151 2.16699L7.70818 2.16699C9.01981 2.16699 10.0832 3.23028 10.0832 4.54199C10.0832 4.97923 10.4376 5.33366 10.8748 5.33366C11.3121 5.33366 11.6665 4.97923 11.6665 4.54199C11.6665 2.35588 9.89429 0.583658 7.70818 0.583658L4.54151 0.583658C2.35541 0.583657 0.58318 2.35588 0.58318 4.54199L0.583179 12.4587C0.583179 14.6448 2.3554 16.417 4.54151 16.417L7.70818 16.417Z" fill="black"/>
<path d="M6.9165 9.29199C6.47927 9.29199 6.12484 8.93756 6.12484 8.50033C6.12484 8.06309 6.47927 7.70866 6.9165 7.70866L6.9165 9.29199Z" fill="black"/>
<path d="M13.4732 9.29193C13.4027 9.37886 13.3352 9.46317 13.2713 9.54368C13.077 9.78886 12.9124 10.0041 12.7963 10.1584C12.7381 10.2356 12.6919 10.2978 12.6601 10.341L12.6232 10.3911L12.6133 10.4046L12.6098 10.4094C12.6098 10.4094 12.6094 10.4099 13.2499 10.8753L12.6098 10.4094C12.3528 10.7631 12.4308 11.2587 12.7845 11.5157C13.1383 11.7727 13.6333 11.6943 13.8903 11.3406L13.8925 11.3376L13.9006 11.3265L13.9337 11.2816C13.963 11.242 14.0062 11.1838 14.0611 11.1108C14.1711 10.9647 14.3275 10.7601 14.512 10.5274C14.885 10.0569 15.3575 9.49136 15.7888 9.06006L16.3486 8.50027L15.7888 7.94048C15.3575 7.50918 14.885 6.94361 14.512 6.47313C14.3275 6.24038 14.1711 6.03581 14.0611 5.88975C14.0062 5.81676 13.963 5.75857 13.9337 5.71898L13.9006 5.67402L13.8925 5.66293L13.8907 5.6604C13.6337 5.30676 13.1383 5.22783 12.7846 5.48481C12.4308 5.74178 12.3524 6.23689 12.6094 6.59061L13.2499 6.12527C12.6094 6.59061 12.6094 6.59053 12.6094 6.59061L12.6133 6.59591L12.6232 6.60945L12.6601 6.65956C12.6919 6.70279 12.7381 6.76486 12.7963 6.84212C12.9124 6.99642 13.077 7.21167 13.2713 7.45685C13.3352 7.53736 13.4027 7.62168 13.4732 7.7086L6.91655 7.7086L6.91655 9.29193L13.4732 9.29193Z" fill="black"/>
</svg>
