<svg width="33" height="33" viewBox="0 0 33 33" fill="none" xmlns="http://www.w3.org/2000/svg">
<g clip-path="url(#clip0_4_1857)">
<path d="M27.4838 1.26062H24.4672C24.2245 1.26062 24.0278 1.45721 24.0279 1.69987C24.028 2.25069 24.0278 3.53969 24.0278 6.58826C24.0278 8.04381 22.848 9.22395 21.3924 9.22395H11.6079C10.1523 9.22395 8.97246 8.04368 8.97246 6.58826C8.97246 3.5395 8.97227 2.2505 8.9724 1.69981C8.97246 1.45714 8.77581 1.26056 8.53315 1.26056H5.51648C4.78874 1.26056 4.19873 1.85056 4.19873 2.57831V31.6823C4.19873 32.41 4.78874 33 5.51648 33H27.4837C28.2114 33 28.8014 32.41 28.8014 31.6823V2.57831C28.8014 1.85056 28.2114 1.26062 27.4838 1.26062ZM15.2838 27.6721C15.2838 28.3998 14.6938 28.9898 13.966 28.9898H9.74932C9.02157 28.9898 8.43157 28.3998 8.43157 27.6721V23.4554C8.43157 22.7276 9.02157 22.1376 9.74932 22.1376H13.966C14.6938 22.1376 15.2838 22.7276 15.2838 23.4554V27.6721ZM15.2838 18.1845C15.2838 18.9122 14.6938 19.5022 13.966 19.5022H9.74932C9.02157 19.5022 8.43157 18.9122 8.43157 18.1845V13.9678C8.43157 13.24 9.02157 12.65 9.74932 12.65H13.966C14.6938 12.65 15.2838 13.24 15.2838 13.9678V18.1845ZM23.2509 26.8814H18.5071C17.7794 26.8814 17.1893 26.2914 17.1893 25.5637C17.1893 24.8359 17.7794 24.2459 18.5071 24.2459H23.2509C23.9786 24.2459 24.5686 24.8359 24.5686 25.5637C24.5686 26.2914 23.9786 26.8814 23.2509 26.8814ZM23.2509 17.3939H18.5071C17.7794 17.3939 17.1893 16.8038 17.1893 16.0761C17.1893 15.3484 17.7794 14.7584 18.5071 14.7584H23.2509C23.9786 14.7584 24.5686 15.3484 24.5686 16.0761C24.5686 16.8039 23.9786 17.3939 23.2509 17.3939Z" fill="#AEAEAE"/>
<path d="M11.6078 7.90629H21.3923C22.12 7.90629 22.7101 7.31628 22.7101 6.58854V1.31775C22.7101 0.590005 22.12 0 21.3923 0H11.6078C10.88 0 10.29 0.590005 10.29 1.31775V6.5886C10.2901 7.31635 10.8801 7.90629 11.6078 7.90629Z" fill="#AEAEAE"/>
</g>
<defs>
<clipPath id="clip0_4_1857">
<rect width="33" height="33" fill="white"/>
</clipPath>
</defs>
</svg>
