<svg width="30" height="34" viewBox="0 0 30 34" fill="none" xmlns="http://www.w3.org/2000/svg">
<path d="M30 30.333C30 31.2171 29.6488 32.0649 29.0237 32.69C28.3986 33.3152 27.5507 33.6663 26.6667 33.6663H3.33333C2.44928 33.6663 1.60143 33.3152 0.976311 32.69C0.351189 32.0649 0 31.2171 0 30.333C0.016529 27.2966 1.069 24.3567 2.98333 21.9997C3.51007 21.3554 4.25875 20.9315 5.0822 20.8112C5.90566 20.6909 6.74432 20.883 7.43333 21.3497C9.66293 22.8644 12.2962 23.6743 14.9917 23.6743C17.6871 23.6743 20.3204 22.8644 22.55 21.3497C23.2404 20.8781 24.0828 20.6832 24.9101 20.8036C25.7374 20.924 26.4893 21.3509 27.0167 21.9997C28.931 24.3567 29.9835 27.2966 30 30.333ZM15 20.333C16.9778 20.333 18.9112 19.7465 20.5557 18.6477C22.2002 17.5489 23.4819 15.9871 24.2388 14.1598C24.9957 12.3326 25.1937 10.3219 24.8079 8.38211C24.422 6.4423 23.4696 4.66047 22.0711 3.26194C20.6725 1.86342 18.8907 0.911012 16.9509 0.525159C15.0111 0.139307 13.0004 0.337341 11.1732 1.09422C9.3459 1.85109 7.78412 3.13282 6.6853 4.77731C5.58649 6.4218 5 8.3552 5 10.333C5 12.9852 6.05357 15.5287 7.92893 17.4041C9.8043 19.2794 12.3478 20.333 15 20.333Z" fill="#AEAEAE"/>
</svg>
